HIERARCHY
ROOT hip
{
	OFFSET	0.00  0.00  0.00 
	CHANNELS 6 Xposition Yposition Zposition Xrotation Zrotation Yrotation
	JOINT abdomen
	{
		OFFSET	0.000000 1.799998 0.000000
		CHANNELS 3 Xrotation Zrotation Yrotation
		JOINT chest
		{
			OFFSET	0.000000 4.464001 -0.360000
			CHANNELS 3 Xrotation Zrotation Yrotation
			JOINT neck
			{
				OFFSET	0.000000 5.400002 -0.144000
				CHANNELS 3 Xrotation Zrotation Yrotation
				JOINT head
				{
					OFFSET	0.000000 1.655998 0.000000
					CHANNELS 3 Xrotation Zrotation Yrotation
				}
			}
			JOINT lCollar
			{
				OFFSET	1.800000 3.528000 -0.432000
				CHANNELS 3 Yrotation Zrotation Xrotation
				JOINT lShldr
				{
					OFFSET	1.728000 0.000000 0.000000
					CHANNELS 3 Zrotation Yrotation Xrotation
					JOINT lForeArm
					{
						OFFSET	5.328000 0.000000 0.000000
						CHANNELS 3 Yrotation Zrotation Xrotation
						JOINT lHand
						{
							OFFSET	4.464000 0.000000 0.000000
							CHANNELS 3 Zrotation Yrotation Xrotation
						}
					}
				}
			}
			JOINT rCollar
			{
				OFFSET	-1.872000 3.528000 -0.432000
				CHANNELS 3 Yrotation Zrotation Xrotation
				JOINT rShldr
				{
					OFFSET	-1.656000 0.000000 0.000000
					CHANNELS 3 Zrotation Yrotation Xrotation
					JOINT rForeArm
					{
						OFFSET	-5.400000 0.000000 0.000000
						CHANNELS 3 Yrotation Zrotation Xrotation
						JOINT rHand
						{
							OFFSET	-4.392000 0.000000 0.000000
							CHANNELS 3 Zrotation Yrotation Xrotation
						}
					}
				}
			}
		}
	}
	JOINT lThigh
	{
		OFFSET	2.808000 -0.864002 0.720000
		CHANNELS 3 Xrotation Zrotation Yrotation
		JOINT lShin
		{
			OFFSET	-1.080000 -10.583999 0.000000
			CHANNELS 3 Xrotation Zrotation Yrotation
			JOINT lFoot
			{
				OFFSET	0.000000 -10.152000 -0.648000
				CHANNELS 3 Xrotation Yrotation Zrotation
				End Site
				{
					OFFSET 0.000000 -1.296000 2.448000
				}
			}
		}
	}
	JOINT rThigh
	{
		OFFSET	-2.808000 -0.864002 0.720000
		CHANNELS 3 Xrotation Zrotation Yrotation
		JOINT rShin
		{
			OFFSET	1.080000 -10.583999 0.000000
			CHANNELS 3 Xrotation Zrotation Yrotation
			JOINT rFoot
			{
				OFFSET	0.000000 -10.152000 -0.648000
				CHANNELS 3 Xrotation Yrotation Zrotation
				End Site
				{
					OFFSET 0.000000 -1.296000 2.448000
				}
			}
		}
	}
}
MOTION
Frames:     8
Frame Time: 0.033333
0.000000 23.151886 0.000000 0.000000 0.000000 0.000000 0.000000 0.000000 0.000000 0.000000 0.000000 0.000000 0.000000 0.000000 0.000000 0.000000 0.000000 0.000000 -0.000206 -0.010520 0.000000 -0.017743 -0.002174 0.000000 0.000000 0.000000 0.000000 0.000000 0.000000 0.000000 9.990230 0.000000 0.000000 0.000000 0.000000 0.000000 0.000000 0.000000 0.000000 0.000000 0.000000 0.000000 0.000000 0.000000 0.000000 0.009766 0.000000 0.000000 -0.097656 0.000000 0.000000 0.000000 -0.019531 0.000000 0.009766 0.019531 -0.009766 0.166016 0.009766 0.000000 
0.000000 23.151886 0.000000 0.000000 0.000000 0.000000 -0.156000 -0.285400 -0.204500 -0.624200 -0.698200 -0.720400 -1.046900 0.182600 -0.705100 0.000000 0.000000 0.000000 3.398200 -9.287300 0.051900 -73.057503 0.968100 12.666100 -12.658600 1.798100 5.896600 -7.000000 0.000000 0.000000 7.846100 14.873700 -1.511400 64.645798 0.630000 10.390600 -0.235600 1.080700 1.992700 7.000000 0.000000 0.000000 0.000000 0.000000 0.000000 0.009766 0.000000 0.000000 -0.097656 0.000000 0.000000 0.000000 -0.019531 0.000000 0.009766 0.019531 -0.009766 0.166016 0.009766 0.000000 
0.000000 23.151886 0.000000 0.000000 0.000000 0.000000 -0.155999 -0.285403 -0.204503 -0.624197 -0.698201 -0.720394 -1.046894 0.182597 -0.705098 0.000000 0.000000 0.000000 3.398196 -9.287297 0.051903 -73.057503 0.968103 12.666100 -12.658600 1.798097 5.896604 -7.000000 0.000000 0.000000 7.846103 14.873700 -1.511397 64.645798 0.629999 10.390600 -0.235595 1.080707 1.992699 7.000000 0.000000 0.000000 0.000000 0.000000 0.000000 0.009766 0.000000 0.000000 -0.097656 0.000000 0.000000 0.000000 -0.019531 0.000000 0.009766 0.019531 -0.009766 0.166016 0.009766 0.000000 
0.000000 23.151886 0.000000 0.000000 0.000000 0.000000 -0.155999 -0.285406 -0.204505 -0.624194 -0.698201 -0.720388 -1.046888 0.182593 -0.705097 0.000000 0.000000 0.000000 3.398190 -9.287294 0.051907 -73.057503 0.968106 12.666099 -12.658600 1.798094 5.896609 -7.000000 0.000000 0.000000 7.846105 14.873700 -1.511394 64.645798 0.629997 10.390599 -0.235589 1.080715 1.992697 7.000000 0.000000 0.000000 0.000000 0.000000 0.000000 0.009766 0.000000 0.000000 -0.097656 0.000000 0.000000 0.000000 -0.019531 0.000000 0.009766 0.019531 -0.009766 0.166016 0.009766 0.000000 
0.000000 23.151886 0.000000 0.000000 0.000000 0.000000 -0.155998 -0.285409 -0.204508 -0.624190 -0.698202 -0.720381 -1.046882 0.182589 -0.705095 0.000000 0.000000 0.000000 3.398185 -9.287292 0.051911 -73.057503 0.968109 12.666099 -12.658600 1.798091 5.896613 -7.000000 0.000000 0.000000 7.846108 14.873699 -1.511391 64.645798 0.629995 10.390598 -0.235583 1.080723 1.992695 7.000000 0.000000 0.000000 0.000000 0.000000 0.000000 0.009766 0.000000 0.000000 -0.097656 0.000000 0.000000 0.000000 -0.019531 0.000000 0.009766 0.019531 -0.009766 0.166016 0.009766 0.000000 
0.000000 23.151886 0.000000 0.000000 0.000000 0.000000 -0.155998 -0.285412 -0.204511 -0.624187 -0.698203 -0.720375 -1.046875 0.182585 -0.705093 0.000000 0.000000 0.000000 3.398181 -9.287289 0.051915 -73.057503 0.968112 12.666100 -12.658600 1.798088 5.896618 -7.000000 0.000000 0.000000 7.846111 14.873700 -1.511388 64.645798 0.629994 10.390598 -0.235577 1.080731 1.992694 7.000000 0.000000 0.000000 0.000000 0.000000 0.000000 0.009766 0.000000 0.000000 -0.097656 0.000000 0.000000 0.000000 -0.019531 0.000000 0.009766 0.019531 -0.009766 0.166016 0.009766 0.000000 
0.000000 23.151886 0.000000 0.000000 0.000000 0.000000 -0.155997 -0.285415 -0.204514 -0.624184 -0.698203 -0.720369 -1.046869 0.182582 -0.705092 0.000000 0.000000 0.000000 3.398176 -9.287284 0.051918 -73.057495 0.968115 12.666099 -12.658598 1.798085 5.896622 -6.999999 0.000000 0.000000 7.846114 14.873699 -1.511385 64.645782 0.629992 10.390597 -0.235572 1.080738 1.992692 6.999999 0.000000 0.000000 0.000000 0.000000 0.000000 0.009766 0.000000 0.000000 -0.097656 0.000000 0.000000 0.000000 -0.019531 0.000000 0.009766 0.019531 -0.009766 0.166016 0.009766 0.000000 
0.000000 23.151886 0.000000 0.000000 0.000000 0.000000 -0.155996 -0.285418 -0.204516 -0.624181 -0.698204 -0.720363 -1.046864 0.182579 -0.705090 0.000000 0.000000 0.000000 3.398173 -9.287281 0.051921 -73.057495 0.968118 12.666100 -12.658598 1.798082 5.896626 -6.999999 0.000000 0.000000 7.846117 14.873699 -1.511382 64.645790 0.629991 10.390598 -0.235567 1.080745 1.992691 6.999999 0.000000 0.000000 0.000000 0.000000 0.000000 0.009766 0.000000 0.000000 -0.097656 0.000000 0.000000 0.000000 -0.019531 0.000000 0.009766 0.019531 -0.009766 0.166016 0.009766 0.000000 
